<?xml version="1.0" encoding="UTF-8"?>
<!DOCTYPE svg PUBLIC "-//W3C//DTD SVG 1.1//EN" "http://www.w3.org/Graphics/SVG/1.1/DTD/svg11.dtd">
<!-- Creator: CorelDRAW X8 -->
<svg xmlns="http://www.w3.org/2000/svg" xml:space="preserve" width="8.5in" height="11in" version="1.1" style="shape-rendering:geometricPrecision; text-rendering:geometricPrecision; image-rendering:optimizeQuality; fill-rule:evenodd; clip-rule:evenodd"
viewBox="0 0 8500 11000"
 xmlns:xlink="http://www.w3.org/1999/xlink">
 <defs>
  <style type="text/css">
   <![CDATA[
    .str1 {stroke:white;stroke-width:27.7756}
    .str0 {stroke:white;stroke-width:3}
    .fil0 {fill:none}
    .fil1 {fill:white}
   ]]>
  </style>
 </defs>
 <g id="Layer_x0020_1">
  <metadata id="CorelCorpID_0Corel-Layer"/>
  <rect class="fil0" x="-152" y="1215" width="8347" height="8347"/>
  <g id="_1475211232768">
   <path class="fil1 str0" d="M1932 4642l131 109c145,110 394,197 241,414 223,-23 340,-151 612,-99 353,68 725,440 1105,322 178,-55 290,-221 431,-318 191,-131 399,-1 626,-10 430,-15 1275,-356 1575,-670 -64,16 -179,77 -338,114 -1419,325 -2668,-469 -4383,138z"/>
   <path class="fil1 str0" d="M604 5427c60,97 217,283 309,360 622,523 1302,676 2086,391 53,-20 119,-53 169,-64 -59,-69 -329,-174 -557,-661 -58,-124 -83,-311 -222,-228 -165,98 -303,181 -540,189 -392,13 -338,-145 -847,28 -228,77 -285,17 -398,-15z"/>
   <path class="fil1 str0" d="M4797 5142c-181,0 -297,48 -403,129 -228,175 -371,351 -780,231 -210,-61 -309,-157 -372,-175 16,30 9,18 34,45 17,18 24,29 38,45 88,95 310,281 441,340 482,220 2129,-565 2490,-864 67,-56 192,-158 221,-232 -54,12 -124,77 -172,103 -32,17 -52,29 -88,49l-268 137c-201,92 -398,157 -624,188 -182,25 -337,4 -517,4z"/>
   <path class="fil1 str0" d="M3019 5761c-12,-73 -14,-74 -2,-148l446 405c174,139 328,240 555,310 117,37 252,54 379,39 43,-5 86,-5 123,-27 -334,-5 -475,-97 -715,-300l-309 -315c-144,-171 -622,-663 -812,-539 -152,99 37,270 138,379l197 196z"/>
   <path class="fil1 str0" d="M627 5206c114,70 615,12 762,-13 118,-19 236,-50 355,-60 68,-5 141,-5 209,2l129 27c69,5 17,7 38,-12 6,-16 -30,-78 0,-133 22,-40 58,-49 102,-72 -70,-94 -238,-213 -345,-238 -237,-54 -774,389 -1250,499z"/>
   <path class="fil1 str0" d="M6573 4586c243,6 410,230 757,80 65,-29 158,-92 186,-140 -166,72 -297,133 -513,14 -63,-35 -142,-96 -227,-99 -105,-2 -179,66 -203,145z"/>
   <path class="fil1 str0" d="M3173 5918c21,25 20,37 45,63 287,300 646,527 1108,479 -416,-38 -863,-276 -1153,-542z"/>
   <path class="fil1 str0" d="M6297 4361c102,-11 139,-47 270,-31 -30,-105 -316,-120 -254,-339 -120,105 -115,281 -16,370z"/>
   <path class="fil1 str0" d="M705 5398c283,20 443,-101 706,-100 134,0 307,52 431,68 106,13 157,2 387,-114 -283,99 -353,95 -425,78 -125,-18 -268,-68 -403,-66 -239,4 -362,107 -696,134z"/>
   <path class="fil1 str0" d="M2256 5076c-33,29 -59,22 -85,-11 14,68 59,75 85,11z"/>
  </g>
  <g id="_1475211247232">
   <g>
    <rect class="fil1 str0" x="6112" y="5826" width="1139" height="250"/>
    <rect class="fil1 str0" x="181" y="3562" width="1139" height="250"/>
    <rect class="fil1 str0" x="2806" y="3145" width="1139" height="250"/>
    <rect class="fil1 str0" x="6778" y="3326" width="1139" height="250"/>
    <rect class="fil1 str0" x="3987" y="7020" width="1139" height="250"/>
    <rect class="fil1 str0" x="625" y="7069" width="1139" height="250"/>
   </g>
   <g>
    <line class="fil0 str1" x1="1927" y1="5902" x2="1195" y2= "7194" />
    <line class="fil0 str1" x1="1425" y1="4971" x2="750" y2= "3687" />
    <line class="fil0 str1" x1="4293" y1="4901" x2="3375" y2= "3270" />
    <line class="fil0 str1" x1="6895" y1="4477" x2="7348" y2= "3451" />
    <line class="fil0 str1" x1="4733" y1="5402" x2="6539" y2= "5958" />
    <line class="fil0 str1" x1="4556" y1="7145" x2="3716" y2= "6310" />
   </g>
  </g>
 </g>
</svg>
