<?xml version="1.0" encoding="UTF-8" standalone="no"?>
<!-- Created with Inkscape (http://www.inkscape.org/) -->

<svg
   xmlns:dc="http://purl.org/dc/elements/1.1/"
   xmlns:cc="http://creativecommons.org/ns#"
   xmlns:rdf="http://www.w3.org/1999/02/22-rdf-syntax-ns#"
   xmlns:svg="http://www.w3.org/2000/svg"
   xmlns="http://www.w3.org/2000/svg"
   xmlns:sodipodi="http://sodipodi.sourceforge.net/DTD/sodipodi-0.dtd"
   xmlns:inkscape="http://www.inkscape.org/namespaces/inkscape"
   width="210mm"
   height="297mm"
   viewBox="0 0 744.09448819 1052.3622047"
   id="svg2"
   version="1.1"
   inkscape:version="0.91 r13725"
   sodipodi:docname="facebook-icon.svg">
  <defs
     id="defs4" />
  <sodipodi:namedview
     id="base"
     pagecolor="#ffffff"
     bordercolor="#666666"
     borderopacity="1.0"
     inkscape:pageopacity="0.0"
     inkscape:pageshadow="2"
     inkscape:zoom="0.71"
     inkscape:cx="-52.142857"
     inkscape:cy="325.96946"
     inkscape:document-units="px"
     inkscape:current-layer="layer1"
     showgrid="false"
     inkscape:window-width="1366"
     inkscape:window-height="715"
     inkscape:window-x="-8"
     inkscape:window-y="-8"
     inkscape:window-maximized="1" />
  <metadata
     id="metadata7">
    <rdf:RDF>
      <cc:Work
         rdf:about="">
        <dc:format>image/svg+xml</dc:format>
        <dc:type
           rdf:resource="http://purl.org/dc/dcmitype/StillImage" />
        <dc:title></dc:title>
      </cc:Work>
    </rdf:RDF>
  </metadata>
  <g
     inkscape:label="Layer 1"
     inkscape:groupmode="layer"
     id="layer1">
    <path
       style="fill:#ffffff"
       d="m 180.47962,479.59972 c -8.137,0 -14.73047,6.59251 -14.73047,14.72851 l 0,237.4336 c 0,8.135 6.59347,14.73047 14.73047,14.73047 l 127.82422,0 0,-103.35547 -34.78125,0 0,-40.2793 34.78125,0 0,-29.70508 c 0,-34.473 21.05364,-53.24414 51.80664,-53.24414 14.729,0 27.39107,1.09789 31.08007,1.58789 l 0,36.02539 -21.32812,0.01 c -16.724,0 -19.96289,7.94737 -19.96289,19.60937 l 0,25.7168 39.88672,0 -5.19336,40.2793 -34.6914,0 0,103.35547 68.01171,0 0,0.002 c 8.134,0 14.72852,-6.59647 14.72852,-14.73047 l 0,-237.43555 c 0,-8.137 -6.59552,-14.72851 -14.72852,-14.72851 l -237.43359,0 z"
       id="Blue_1_"
       inkscape:connector-curvature="0" />
    <g
       id="g3339"
       transform="translate(-284.95556,534.52838)" />
    <g
       id="g3341"
       transform="translate(-284.95556,534.52838)" />
    <g
       id="g3343"
       transform="translate(-284.95556,534.52838)" />
    <g
       id="g3345"
       transform="translate(-284.95556,534.52838)" />
    <g
       id="g3347"
       transform="translate(-284.95556,534.52838)" />
    <g
       id="g3349"
       transform="translate(-284.95556,534.52838)" />
  </g>
</svg>
